# Procedural Enterprise 2.5-inch HDD Cover Mesh
v -0.034500 -0.049500 0.000000
v 0.034500 -0.049500 0.000000
v 0.034500 0.049500 0.000000
v -0.034500 0.049500 0.000000
v -0.034500 -0.049500 0.002500
v 0.034500 -0.049500 0.002500
v 0.034500 0.049500 0.002500
v -0.034500 0.049500 0.002500
v -0.029000 -0.043000 0.002400
v 0.029000 -0.043000 0.002400
v 0.029000 0.033000 0.002400
v -0.029000 0.033000 0.002400
v -0.029000 -0.043000 0.003000
v 0.029000 -0.043000 0.003000
v 0.029000 0.033000 0.003000
v -0.029000 0.033000 0.003000
v -0.025000 -0.012500 0.002950
v 0.025000 -0.012500 0.002950
v 0.025000 0.032500 0.002950
v -0.025000 0.032500 0.002950
v -0.025000 -0.012500 0.003250
v 0.025000 -0.012500 0.003250
v 0.025000 0.032500 0.003250
v -0.025000 0.032500 0.003250
v 0.010000 -0.018000 0.002900
v 0.009511 -0.014910 0.002900
v 0.008090 -0.012122 0.002900
v 0.005878 -0.009910 0.002900
v 0.003090 -0.008489 0.002900
v 0.000000 -0.008000 0.002900
v -0.003090 -0.008489 0.002900
v -0.005878 -0.009910 0.002900
v -0.008090 -0.012122 0.002900
v -0.009511 -0.014910 0.002900
v -0.010000 -0.018000 0.002900
v -0.009511 -0.021090 0.002900
v -0.008090 -0.023878 0.002900
v -0.005878 -0.026090 0.002900
v -0.003090 -0.027511 0.002900
v -0.000000 -0.028000 0.002900
v 0.003090 -0.027511 0.002900
v 0.005878 -0.026090 0.002900
v 0.008090 -0.023878 0.002900
v 0.009511 -0.021090 0.002900
v 0.010000 -0.018000 0.003700
v 0.009511 -0.014910 0.003700
v 0.008090 -0.012122 0.003700
v 0.005878 -0.009910 0.003700
v 0.003090 -0.008489 0.003700
v 0.000000 -0.008000 0.003700
v -0.003090 -0.008489 0.003700
v -0.005878 -0.009910 0.003700
v -0.008090 -0.012122 0.003700
v -0.009511 -0.014910 0.003700
v -0.010000 -0.018000 0.003700
v -0.009511 -0.021090 0.003700
v -0.008090 -0.023878 0.003700
v -0.005878 -0.026090 0.003700
v -0.003090 -0.027511 0.003700
v -0.000000 -0.028000 0.003700
v 0.003090 -0.027511 0.003700
v 0.005878 -0.026090 0.003700
v 0.008090 -0.023878 0.003700
v 0.009511 -0.021090 0.003700
v 0.000000 -0.018000 0.002900
v 0.000000 -0.018000 0.003700
v 0.025000 -0.038000 0.002900
v 0.024598 -0.036500 0.002900
v 0.023500 -0.035402 0.002900
v 0.022000 -0.035000 0.002900
v 0.020500 -0.035402 0.002900
v 0.019402 -0.036500 0.002900
v 0.019000 -0.038000 0.002900
v 0.019402 -0.039500 0.002900
v 0.020500 -0.040598 0.002900
v 0.022000 -0.041000 0.002900
v 0.023500 -0.040598 0.002900
v 0.024598 -0.039500 0.002900
v 0.025000 -0.038000 0.003500
v 0.024598 -0.036500 0.003500
v 0.023500 -0.035402 0.003500
v 0.022000 -0.035000 0.003500
v 0.020500 -0.035402 0.003500
v 0.019402 -0.036500 0.003500
v 0.019000 -0.038000 0.003500
v 0.019402 -0.039500 0.003500
v 0.020500 -0.040598 0.003500
v 0.022000 -0.041000 0.003500
v 0.023500 -0.040598 0.003500
v 0.024598 -0.039500 0.003500
v 0.022000 -0.038000 0.002900
v 0.022000 -0.038000 0.003500
v -0.027800 -0.044000 0.002800
v -0.028220 -0.042707 0.002800
v -0.029320 -0.041908 0.002800
v -0.030680 -0.041908 0.002800
v -0.031780 -0.042707 0.002800
v -0.032200 -0.044000 0.002800
v -0.031780 -0.045293 0.002800
v -0.030680 -0.046092 0.002800
v -0.029320 -0.046092 0.002800
v -0.028220 -0.045293 0.002800
v -0.027800 -0.044000 0.003600
v -0.028220 -0.042707 0.003600
v -0.029320 -0.041908 0.003600
v -0.030680 -0.041908 0.003600
v -0.031780 -0.042707 0.003600
v -0.032200 -0.044000 0.003600
v -0.031780 -0.045293 0.003600
v -0.030680 -0.046092 0.003600
v -0.029320 -0.046092 0.003600
v -0.028220 -0.045293 0.003600
v -0.030000 -0.044000 0.002800
v -0.030000 -0.044000 0.003600
v 0.002200 -0.044000 0.002800
v 0.001780 -0.042707 0.002800
v 0.000680 -0.041908 0.002800
v -0.000680 -0.041908 0.002800
v -0.001780 -0.042707 0.002800
v -0.002200 -0.044000 0.002800
v -0.001780 -0.045293 0.002800
v -0.000680 -0.046092 0.002800
v 0.000680 -0.046092 0.002800
v 0.001780 -0.045293 0.002800
v 0.002200 -0.044000 0.003600
v 0.001780 -0.042707 0.003600
v 0.000680 -0.041908 0.003600
v -0.000680 -0.041908 0.003600
v -0.001780 -0.042707 0.003600
v -0.002200 -0.044000 0.003600
v -0.001780 -0.045293 0.003600
v -0.000680 -0.046092 0.003600
v 0.000680 -0.046092 0.003600
v 0.001780 -0.045293 0.003600
v 0.000000 -0.044000 0.002800
v 0.000000 -0.044000 0.003600
v 0.032200 -0.044000 0.002800
v 0.031780 -0.042707 0.002800
v 0.030680 -0.041908 0.002800
v 0.029320 -0.041908 0.002800
v 0.028220 -0.042707 0.002800
v 0.027800 -0.044000 0.002800
v 0.028220 -0.045293 0.002800
v 0.029320 -0.046092 0.002800
v 0.030680 -0.046092 0.002800
v 0.031780 -0.045293 0.002800
v 0.032200 -0.044000 0.003600
v 0.031780 -0.042707 0.003600
v 0.030680 -0.041908 0.003600
v 0.029320 -0.041908 0.003600
v 0.028220 -0.042707 0.003600
v 0.027800 -0.044000 0.003600
v 0.028220 -0.045293 0.003600
v 0.029320 -0.046092 0.003600
v 0.030680 -0.046092 0.003600
v 0.031780 -0.045293 0.003600
v 0.030000 -0.044000 0.002800
v 0.030000 -0.044000 0.003600
v -0.027800 0.000000 0.002800
v -0.028220 0.001293 0.002800
v -0.029320 0.002092 0.002800
v -0.030680 0.002092 0.002800
v -0.031780 0.001293 0.002800
v -0.032200 0.000000 0.002800
v -0.031780 -0.001293 0.002800
v -0.030680 -0.002092 0.002800
v -0.029320 -0.002092 0.002800
v -0.028220 -0.001293 0.002800
v -0.027800 0.000000 0.003600
v -0.028220 0.001293 0.003600
v -0.029320 0.002092 0.003600
v -0.030680 0.002092 0.003600
v -0.031780 0.001293 0.003600
v -0.032200 0.000000 0.003600
v -0.031780 -0.001293 0.003600
v -0.030680 -0.002092 0.003600
v -0.029320 -0.002092 0.003600
v -0.028220 -0.001293 0.003600
v -0.030000 0.000000 0.002800
v -0.030000 0.000000 0.003600
v 0.032200 0.000000 0.002800
v 0.031780 0.001293 0.002800
v 0.030680 0.002092 0.002800
v 0.029320 0.002092 0.002800
v 0.028220 0.001293 0.002800
v 0.027800 0.000000 0.002800
v 0.028220 -0.001293 0.002800
v 0.029320 -0.002092 0.002800
v 0.030680 -0.002092 0.002800
v 0.031780 -0.001293 0.002800
v 0.032200 0.000000 0.003600
v 0.031780 0.001293 0.003600
v 0.030680 0.002092 0.003600
v 0.029320 0.002092 0.003600
v 0.028220 0.001293 0.003600
v 0.027800 0.000000 0.003600
v 0.028220 -0.001293 0.003600
v 0.029320 -0.002092 0.003600
v 0.030680 -0.002092 0.003600
v 0.031780 -0.001293 0.003600
v 0.030000 0.000000 0.002800
v 0.030000 0.000000 0.003600
v -0.027800 0.044000 0.002800
v -0.028220 0.045293 0.002800
v -0.029320 0.046092 0.002800
v -0.030680 0.046092 0.002800
v -0.031780 0.045293 0.002800
v -0.032200 0.044000 0.002800
v -0.031780 0.042707 0.002800
v -0.030680 0.041908 0.002800
v -0.029320 0.041908 0.002800
v -0.028220 0.042707 0.002800
v -0.027800 0.044000 0.003600
v -0.028220 0.045293 0.003600
v -0.029320 0.046092 0.003600
v -0.030680 0.046092 0.003600
v -0.031780 0.045293 0.003600
v -0.032200 0.044000 0.003600
v -0.031780 0.042707 0.003600
v -0.030680 0.041908 0.003600
v -0.029320 0.041908 0.003600
v -0.028220 0.042707 0.003600
v -0.030000 0.044000 0.002800
v -0.030000 0.044000 0.003600
v 0.002200 0.044000 0.002800
v 0.001780 0.045293 0.002800
v 0.000680 0.046092 0.002800
v -0.000680 0.046092 0.002800
v -0.001780 0.045293 0.002800
v -0.002200 0.044000 0.002800
v -0.001780 0.042707 0.002800
v -0.000680 0.041908 0.002800
v 0.000680 0.041908 0.002800
v 0.001780 0.042707 0.002800
v 0.002200 0.044000 0.003600
v 0.001780 0.045293 0.003600
v 0.000680 0.046092 0.003600
v -0.000680 0.046092 0.003600
v -0.001780 0.045293 0.003600
v -0.002200 0.044000 0.003600
v -0.001780 0.042707 0.003600
v -0.000680 0.041908 0.003600
v 0.000680 0.041908 0.003600
v 0.001780 0.042707 0.003600
v 0.000000 0.044000 0.002800
v 0.000000 0.044000 0.003600
v 0.032200 0.044000 0.002800
v 0.031780 0.045293 0.002800
v 0.030680 0.046092 0.002800
v 0.029320 0.046092 0.002800
v 0.028220 0.045293 0.002800
v 0.027800 0.044000 0.002800
v 0.028220 0.042707 0.002800
v 0.029320 0.041908 0.002800
v 0.030680 0.041908 0.002800
v 0.031780 0.042707 0.002800
v 0.032200 0.044000 0.003600
v 0.031780 0.045293 0.003600
v 0.030680 0.046092 0.003600
v 0.029320 0.046092 0.003600
v 0.028220 0.045293 0.003600
v 0.027800 0.044000 0.003600
v 0.028220 0.042707 0.003600
v 0.029320 0.041908 0.003600
v 0.030680 0.041908 0.003600
v 0.031780 0.042707 0.003600
v 0.030000 0.044000 0.002800
v 0.030000 0.044000 0.003600
f 1 2 3 4
f 5 8 7 6
f 1 5 6 2
f 2 6 7 3
f 3 7 8 4
f 4 8 5 1
f 9 10 11 12
f 13 16 15 14
f 9 13 14 10
f 10 14 15 11
f 11 15 16 12
f 12 16 13 9
f 17 18 19 20
f 21 24 23 22
f 17 21 22 18
f 18 22 23 19
f 19 23 24 20
f 20 24 21 17
f 65 25 26
f 66 46 45
f 25 26 46 45
f 65 26 27
f 66 47 46
f 26 27 47 46
f 65 27 28
f 66 48 47
f 27 28 48 47
f 65 28 29
f 66 49 48
f 28 29 49 48
f 65 29 30
f 66 50 49
f 29 30 50 49
f 65 30 31
f 66 51 50
f 30 31 51 50
f 65 31 32
f 66 52 51
f 31 32 52 51
f 65 32 33
f 66 53 52
f 32 33 53 52
f 65 33 34
f 66 54 53
f 33 34 54 53
f 65 34 35
f 66 55 54
f 34 35 55 54
f 65 35 36
f 66 56 55
f 35 36 56 55
f 65 36 37
f 66 57 56
f 36 37 57 56
f 65 37 38
f 66 58 57
f 37 38 58 57
f 65 38 39
f 66 59 58
f 38 39 59 58
f 65 39 40
f 66 60 59
f 39 40 60 59
f 65 40 41
f 66 61 60
f 40 41 61 60
f 65 41 42
f 66 62 61
f 41 42 62 61
f 65 42 43
f 66 63 62
f 42 43 63 62
f 65 43 44
f 66 64 63
f 43 44 64 63
f 65 44 25
f 66 45 64
f 44 25 45 64
f 91 67 68
f 92 80 79
f 67 68 80 79
f 91 68 69
f 92 81 80
f 68 69 81 80
f 91 69 70
f 92 82 81
f 69 70 82 81
f 91 70 71
f 92 83 82
f 70 71 83 82
f 91 71 72
f 92 84 83
f 71 72 84 83
f 91 72 73
f 92 85 84
f 72 73 85 84
f 91 73 74
f 92 86 85
f 73 74 86 85
f 91 74 75
f 92 87 86
f 74 75 87 86
f 91 75 76
f 92 88 87
f 75 76 88 87
f 91 76 77
f 92 89 88
f 76 77 89 88
f 91 77 78
f 92 90 89
f 77 78 90 89
f 91 78 67
f 92 79 90
f 78 67 79 90
f 113 93 94
f 114 104 103
f 93 94 104 103
f 113 94 95
f 114 105 104
f 94 95 105 104
f 113 95 96
f 114 106 105
f 95 96 106 105
f 113 96 97
f 114 107 106
f 96 97 107 106
f 113 97 98
f 114 108 107
f 97 98 108 107
f 113 98 99
f 114 109 108
f 98 99 109 108
f 113 99 100
f 114 110 109
f 99 100 110 109
f 113 100 101
f 114 111 110
f 100 101 111 110
f 113 101 102
f 114 112 111
f 101 102 112 111
f 113 102 93
f 114 103 112
f 102 93 103 112
f 135 115 116
f 136 126 125
f 115 116 126 125
f 135 116 117
f 136 127 126
f 116 117 127 126
f 135 117 118
f 136 128 127
f 117 118 128 127
f 135 118 119
f 136 129 128
f 118 119 129 128
f 135 119 120
f 136 130 129
f 119 120 130 129
f 135 120 121
f 136 131 130
f 120 121 131 130
f 135 121 122
f 136 132 131
f 121 122 132 131
f 135 122 123
f 136 133 132
f 122 123 133 132
f 135 123 124
f 136 134 133
f 123 124 134 133
f 135 124 115
f 136 125 134
f 124 115 125 134
f 157 137 138
f 158 148 147
f 137 138 148 147
f 157 138 139
f 158 149 148
f 138 139 149 148
f 157 139 140
f 158 150 149
f 139 140 150 149
f 157 140 141
f 158 151 150
f 140 141 151 150
f 157 141 142
f 158 152 151
f 141 142 152 151
f 157 142 143
f 158 153 152
f 142 143 153 152
f 157 143 144
f 158 154 153
f 143 144 154 153
f 157 144 145
f 158 155 154
f 144 145 155 154
f 157 145 146
f 158 156 155
f 145 146 156 155
f 157 146 137
f 158 147 156
f 146 137 147 156
f 179 159 160
f 180 170 169
f 159 160 170 169
f 179 160 161
f 180 171 170
f 160 161 171 170
f 179 161 162
f 180 172 171
f 161 162 172 171
f 179 162 163
f 180 173 172
f 162 163 173 172
f 179 163 164
f 180 174 173
f 163 164 174 173
f 179 164 165
f 180 175 174
f 164 165 175 174
f 179 165 166
f 180 176 175
f 165 166 176 175
f 179 166 167
f 180 177 176
f 166 167 177 176
f 179 167 168
f 180 178 177
f 167 168 178 177
f 179 168 159
f 180 169 178
f 168 159 169 178
f 201 181 182
f 202 192 191
f 181 182 192 191
f 201 182 183
f 202 193 192
f 182 183 193 192
f 201 183 184
f 202 194 193
f 183 184 194 193
f 201 184 185
f 202 195 194
f 184 185 195 194
f 201 185 186
f 202 196 195
f 185 186 196 195
f 201 186 187
f 202 197 196
f 186 187 197 196
f 201 187 188
f 202 198 197
f 187 188 198 197
f 201 188 189
f 202 199 198
f 188 189 199 198
f 201 189 190
f 202 200 199
f 189 190 200 199
f 201 190 181
f 202 191 200
f 190 181 191 200
f 223 203 204
f 224 214 213
f 203 204 214 213
f 223 204 205
f 224 215 214
f 204 205 215 214
f 223 205 206
f 224 216 215
f 205 206 216 215
f 223 206 207
f 224 217 216
f 206 207 217 216
f 223 207 208
f 224 218 217
f 207 208 218 217
f 223 208 209
f 224 219 218
f 208 209 219 218
f 223 209 210
f 224 220 219
f 209 210 220 219
f 223 210 211
f 224 221 220
f 210 211 221 220
f 223 211 212
f 224 222 221
f 211 212 222 221
f 223 212 203
f 224 213 222
f 212 203 213 222
f 245 225 226
f 246 236 235
f 225 226 236 235
f 245 226 227
f 246 237 236
f 226 227 237 236
f 245 227 228
f 246 238 237
f 227 228 238 237
f 245 228 229
f 246 239 238
f 228 229 239 238
f 245 229 230
f 246 240 239
f 229 230 240 239
f 245 230 231
f 246 241 240
f 230 231 241 240
f 245 231 232
f 246 242 241
f 231 232 242 241
f 245 232 233
f 246 243 242
f 232 233 243 242
f 245 233 234
f 246 244 243
f 233 234 244 243
f 245 234 225
f 246 235 244
f 234 225 235 244
f 267 247 248
f 268 258 257
f 247 248 258 257
f 267 248 249
f 268 259 258
f 248 249 259 258
f 267 249 250
f 268 260 259
f 249 250 260 259
f 267 250 251
f 268 261 260
f 250 251 261 260
f 267 251 252
f 268 262 261
f 251 252 262 261
f 267 252 253
f 268 263 262
f 252 253 263 262
f 267 253 254
f 268 264 263
f 253 254 264 263
f 267 254 255
f 268 265 264
f 254 255 265 264
f 267 255 256
f 268 266 265
f 255 256 266 265
f 267 256 247
f 268 257 266
f 256 247 257 266
