# Procedural Enterprise 2.5-inch HDD Base Mesh
v -0.035000 -0.050000 0.000000
v 0.035000 -0.050000 0.000000
v 0.035000 0.050000 0.000000
v -0.035000 0.050000 0.000000
v -0.035000 -0.050000 0.015000
v 0.035000 -0.050000 0.015000
v 0.035000 0.050000 0.015000
v -0.035000 0.050000 0.015000
v -0.035500 -0.048000 0.001000
v -0.032500 -0.048000 0.001000
v -0.032500 0.048000 0.001000
v -0.035500 0.048000 0.001000
v -0.035500 -0.048000 0.014000
v -0.032500 -0.048000 0.014000
v -0.032500 0.048000 0.014000
v -0.035500 0.048000 0.014000
v 0.032500 -0.048000 0.001000
v 0.035500 -0.048000 0.001000
v 0.035500 0.048000 0.001000
v 0.032500 0.048000 0.001000
v 0.032500 -0.048000 0.014000
v 0.035500 -0.048000 0.014000
v 0.035500 0.048000 0.014000
v 0.032500 0.048000 0.014000
v -0.000500 0.044000 0.002000
v 0.024500 0.044000 0.002000
v 0.024500 0.052000 0.002000
v -0.000500 0.052000 0.002000
v -0.000500 0.044000 0.008000
v 0.024500 0.044000 0.008000
v 0.024500 0.052000 0.008000
v -0.000500 0.052000 0.008000
v -0.026000 0.044000 0.002000
v -0.010000 0.044000 0.002000
v -0.010000 0.052000 0.002000
v -0.026000 0.052000 0.002000
v -0.026000 0.044000 0.008000
v -0.010000 0.044000 0.008000
v -0.010000 0.052000 0.008000
v -0.026000 0.052000 0.008000
v 0.012000 -0.010000 0.014700
v 0.011413 -0.006292 0.014700
v 0.009708 -0.002947 0.014700
v 0.007053 -0.000292 0.014700
v 0.003708 0.001413 0.014700
v 0.000000 0.002000 0.014700
v -0.003708 0.001413 0.014700
v -0.007053 -0.000292 0.014700
v -0.009708 -0.002947 0.014700
v -0.011413 -0.006292 0.014700
v -0.012000 -0.010000 0.014700
v -0.011413 -0.013708 0.014700
v -0.009708 -0.017053 0.014700
v -0.007053 -0.019708 0.014700
v -0.003708 -0.021413 0.014700
v -0.000000 -0.022000 0.014700
v 0.003708 -0.021413 0.014700
v 0.007053 -0.019708 0.014700
v 0.009708 -0.017053 0.014700
v 0.011413 -0.013708 0.014700
v 0.012000 -0.010000 0.015700
v 0.011413 -0.006292 0.015700
v 0.009708 -0.002947 0.015700
v 0.007053 -0.000292 0.015700
v 0.003708 0.001413 0.015700
v 0.000000 0.002000 0.015700
v -0.003708 0.001413 0.015700
v -0.007053 -0.000292 0.015700
v -0.009708 -0.002947 0.015700
v -0.011413 -0.006292 0.015700
v -0.012000 -0.010000 0.015700
v -0.011413 -0.013708 0.015700
v -0.009708 -0.017053 0.015700
v -0.007053 -0.019708 0.015700
v -0.003708 -0.021413 0.015700
v -0.000000 -0.022000 0.015700
v 0.003708 -0.021413 0.015700
v 0.007053 -0.019708 0.015700
v 0.009708 -0.017053 0.015700
v 0.011413 -0.013708 0.015700
v 0.000000 -0.010000 0.014700
v 0.000000 -0.010000 0.015700
f 1 2 3 4
f 5 8 7 6
f 1 5 6 2
f 2 6 7 3
f 3 7 8 4
f 4 8 5 1
f 9 10 11 12
f 13 16 15 14
f 9 13 14 10
f 10 14 15 11
f 11 15 16 12
f 12 16 13 9
f 17 18 19 20
f 21 24 23 22
f 17 21 22 18
f 18 22 23 19
f 19 23 24 20
f 20 24 21 17
f 25 26 27 28
f 29 32 31 30
f 25 29 30 26
f 26 30 31 27
f 27 31 32 28
f 28 32 29 25
f 33 34 35 36
f 37 40 39 38
f 33 37 38 34
f 34 38 39 35
f 35 39 40 36
f 36 40 37 33
f 81 41 42
f 82 62 61
f 41 42 62 61
f 81 42 43
f 82 63 62
f 42 43 63 62
f 81 43 44
f 82 64 63
f 43 44 64 63
f 81 44 45
f 82 65 64
f 44 45 65 64
f 81 45 46
f 82 66 65
f 45 46 66 65
f 81 46 47
f 82 67 66
f 46 47 67 66
f 81 47 48
f 82 68 67
f 47 48 68 67
f 81 48 49
f 82 69 68
f 48 49 69 68
f 81 49 50
f 82 70 69
f 49 50 70 69
f 81 50 51
f 82 71 70
f 50 51 71 70
f 81 51 52
f 82 72 71
f 51 52 72 71
f 81 52 53
f 82 73 72
f 52 53 73 72
f 81 53 54
f 82 74 73
f 53 54 74 73
f 81 54 55
f 82 75 74
f 54 55 75 74
f 81 55 56
f 82 76 75
f 55 56 76 75
f 81 56 57
f 82 77 76
f 56 57 77 76
f 81 57 58
f 82 78 77
f 57 58 78 77
f 81 58 59
f 82 79 78
f 58 59 79 78
f 81 59 60
f 82 80 79
f 59 60 80 79
f 81 60 41
f 82 61 80
f 60 41 61 80
